<?xml version="1.0" encoding="UTF-8"?>
<svg width="16px" height="20px" viewBox="0 0 16 20" version="1.1" xmlns="http://www.w3.org/2000/svg" xmlns:xlink="http://www.w3.org/1999/xlink">
    <!-- Generator: Sketch 63.1 (92452) - https://sketch.com -->
    <title>commmon/common_yy2</title>
    <desc>Created with Sketch.</desc>
    <g id="控件" stroke="none" stroke-width="1" fill="none" fill-rule="evenodd">
        <g id="数据录入-/-按钮-/-1-主要按钮-/-1-普通" transform="translate(-64.000000, -6.000000)" fill="#027AFF" fill-rule="nonzero">
            <g id="commmon/common_yy2" transform="translate(64.000000, 6.000000)">
                <path d="M1.58045714,19.8857143 L0,18.3051429 C2.4016,16.2501714 3.92925714,13.2027429 3.92925714,9.7936 C3.92925714,6.54594286 2.53897143,3.63017143 0.331542857,1.58434286 L1.91588571,-9.09494702e-13 C4.52777143,2.45154286 6.16834286,5.92582857 6.16834286,9.7904 C6.16834286,13.8181714 4.38754286,17.4222857 1.58045714,19.8857143 Z" id="路径" transform="translate(3.084171, 9.942857) rotate(-180.000000) translate(-3.084171, -9.942857) "></path>
                <path d="M12.6252571,15.6512 L10.9971429,14.0233143 C12.4766857,13.2053714 13.4790857,11.6312 13.4790857,9.82114286 C13.4790857,8.17794286 12.6521143,6.72914286 11.3926857,5.86377143 L12.9914286,4.26525714 C14.6483429,5.55337143 15.7188571,7.56022857 15.7188571,9.82114286 C15.7188571,12.2465143 14.4921143,14.3846857 12.6252571,15.6512 L12.6252571,15.6512 Z M7.3592,11.7411429 C6.47577143,11.7411429 5.75942857,11.0250286 5.75942857,10.1412571 C5.75942857,9.25737143 6.47565714,8.54137143 7.3592,8.54137143 C8.24331429,8.54137143 8.9592,9.25737143 8.9592,10.1412571 C8.9592,11.0250286 8.24331429,11.7411429 7.3592,11.7411429 L7.3592,11.7411429 Z" id="形状" transform="translate(10.739143, 9.958229) rotate(-180.000000) translate(-10.739143, -9.958229) "></path>
            </g>
        </g>
    </g>
</svg>