<?xml version="1.0" encoding="UTF-8"?>
<svg width="80px" height="30px" viewBox="0 0 80 30" version="1.1" xmlns="http://www.w3.org/2000/svg" xmlns:xlink="http://www.w3.org/1999/xlink">
    <!-- Generator: Sketch 63.1 (92452) - https://sketch.com -->
    <title>Common/ly</title>
    <desc>Created with Sketch.</desc>
    <defs>
        <linearGradient x1="90.2124315%" y1="41.7555024%" x2="10.4891204%" y2="59.6445649%" id="linearGradient-1">
            <stop stop-color="#8DBDFF" offset="0%"></stop>
            <stop stop-color="#1677FF" offset="100%"></stop>
        </linearGradient>
    </defs>
    <g id="Common/ly" stroke="none" stroke-width="1" fill="none" fill-rule="evenodd" opacity="0.4">
        <g transform="translate(0.000000, 1.000000)" fill="url(#linearGradient-1)" fill-rule="nonzero" id="形状">
            <path d="M11.4124962,7.19010133 L11.4124962,7.19010133 C12.5170665,7.19010133 13.4124962,8.13030251 13.4124962,9.29010133 C13.4124962,9.29010133 13.4124962,9.29010133 13.4124962,9.29010133 L13.4124962,19.0901013 L13.4124962,19.0901013 C13.4124962,20.2499002 12.5170665,21.1901013 11.4124962,21.1901013 C10.3079259,21.1901013 9.41249619,20.2499002 9.41249619,19.0901013 L9.41249619,9.29010133 L9.41249619,9.29010165 C9.41249619,8.13030282 10.3079259,7.19010133 11.4124962,7.19010133 C11.4124962,7.19010133 11.4124962,7.19010133 11.4124962,7.19010133 L11.4124962,7.19010133 Z M3.9999999,4.87604053 L3.9999999,22.8760405 C3.9999999,23.9806108 3.10457021,24.8760405 1.9999999,24.8760405 C0.895429585,24.8760405 -1.02858178e-07,23.9806108 -1.02858178e-07,22.8760405 L-1.02858178e-07,4.87604053 C-1.02858178e-07,3.77147052 0.895429585,2.87604053 1.9999999,2.87604053 C3.10457021,2.87604053 3.9999999,3.77147022 3.9999999,4.87604053 Z M39.6499851,8.6281216 L39.6499851,8.6281216 C40.7545554,8.6281216 41.6499851,9.63547999 41.6499851,10.8781216 L41.6499851,18.3781215 L41.6499851,18.3781216 C41.6499851,19.6207632 40.7545554,20.6281216 39.6499851,20.6281216 C38.5454147,20.6281216 37.6499851,19.6207632 37.6499851,18.3781216 C37.6499851,18.3781216 37.6499851,18.3781215 37.6499851,18.3781215 L37.6499851,10.8781215 L37.6499851,10.8781218 C37.6499851,9.63548026 38.5454147,8.6281216 39.6499851,8.6281216 L39.6499851,8.6281216 Z M30.2374888,5.75208107 L30.2374888,5.75208107 C31.3420591,5.75208107 32.2374888,6.64751075 32.2374888,7.75208107 C32.2374888,7.75208107 32.2374888,7.75208107 32.2374888,7.75208107 L32.2374888,19.7520811 L32.2374888,19.7520811 C32.2374888,20.8566514 31.3420591,21.7520811 30.2374888,21.7520811 C29.1329185,21.7520811 28.2374888,20.8566514 28.2374888,19.7520811 L28.2374888,7.75208107 L28.2374888,7.75208107 C28.2374888,6.64751106 29.1329185,5.75208107 30.2374888,5.75208107 L30.2374888,5.75208107 Z M49.0624814,4.3140604 L49.0624814,4.3140604 C50.1670517,4.3140604 51.0624814,5.24036734 51.0624814,6.38302625 L51.0624814,22.2450949 L51.0624814,22.2450949 C51.0624814,23.3877538 50.1670517,24.3140604 49.0624814,24.3140604 C47.957911,24.3140604 47.0624814,23.3877538 47.0624814,22.2450949 C47.0624814,22.2450949 47.0624814,22.2450948 47.0624814,22.2450948 L47.0624814,6.38302618 L47.0624814,6.38302587 C47.0624814,5.24036695 47.957911,4.3140604 49.0624814,4.3140604 L49.0624814,4.3140604 Z M67.8874739,2.87604053 L67.8874739,2.87604053 C68.9920442,2.87604053 69.8874739,3.77147022 69.8874739,4.87604053 C69.8874739,4.87604053 69.8874739,4.87604053 69.8874739,4.87604053 L69.8874739,22.8760405 L69.8874739,22.8760405 C69.8874739,23.9806108 68.9920442,24.8760405 67.8874739,24.8760405 C66.7829036,24.8760405 65.8874739,23.9806108 65.8874739,22.8760405 C65.8874739,22.8760405 65.8874739,22.8760405 65.8874739,22.8760405 L65.8874739,4.87604053 L65.8874739,4.87604053 C65.8874739,3.77147045 66.7829036,2.87604053 67.8874739,2.87604053 C67.8874739,2.87604053 67.8874739,2.87604053 67.8874739,2.87604053 L67.8874739,2.87604053 Z M77.2999702,7.19010133 L77.2999702,7.19010133 C78.4045405,7.19010133 79.2999702,8.08553102 79.2999702,9.19010133 C79.2999702,9.19010133 79.2999702,9.19010133 79.2999702,9.19010133 L79.2999702,19.1901013 L79.2999702,19.1901013 C79.2999702,20.2946717 78.4045405,21.1901013 77.2999702,21.1901013 C76.1953999,21.1901013 75.2999702,20.2946717 75.2999702,19.1901013 C75.2999702,19.1901013 75.2999702,19.1901013 75.2999702,19.1901013 L75.2999702,9.19010133 L75.2999702,9.19010133 C75.2999702,8.08553125 76.1953999,7.19010133 77.2999702,7.19010133 C77.2999702,7.19010133 77.2999702,7.19010133 77.2999702,7.19010133 L77.2999702,7.19010133 Z M58.4749776,0 L58.4749776,0 C59.579548,0 60.4749776,0.94020117 60.4749776,2.09999999 L60.4749776,25.8999999 L60.4749776,25.9 C60.4749776,27.0597988 59.579548,28 58.4749776,28 C57.3704073,28 56.4749776,27.0597988 56.4749776,25.9 C56.4749776,25.9 56.4749776,25.8999999 56.4749776,25.8999999 L56.4749776,2.09999992 L56.4749776,2.10000024 C56.4749776,0.940201415 57.3704073,0 58.4749776,0 L58.4749776,0 Z M20.8249925,0 L20.8249925,0 C21.9295628,0 22.8249925,0.940201172 22.8249925,2.1 L22.8249925,25.9 L22.8249925,25.9 C22.8249925,27.0597988 21.9295628,28 20.8249925,28 C19.7204222,28 18.8249925,27.0597988 18.8249925,25.9 L18.8249925,2.1 L18.8249925,2.10000032 C18.8249925,0.940201489 19.7204222,0 20.8249925,0 L20.8249925,0 Z"></path>
        </g>
    </g>
</svg>