<?xml version="1.0" standalone="no"?><!DOCTYPE svg PUBLIC "-//W3C//DTD SVG 1.1//EN" "http://www.w3.org/Graphics/SVG/1.1/DTD/svg11.dtd"><svg t="1582602683824" class="icon" viewBox="0 0 1024 1024" version="1.1" xmlns="http://www.w3.org/2000/svg" p-id="2646" xmlns:xlink="http://www.w3.org/1999/xlink"><defs><style type="text/css"></style></defs><path d="M54.5 430.2c14-6.2 35-45.9 49.1-56.9 21.8-17.9 57.6-42.1 87.2-32.7 60 18.7 75.5 107.5 141 128.5 74 23.4 106.7-38.2 146.4-81.8 35.8-38.9 99.7-31.2 126.2 14.8 9.3 16.4 17.1 31.9 23.4 42.8 35 60.7 81.8 92.7 154.2 83.3 63.9-8.6 162-116.8 175.2-213.4 5.5-42.1-77.9 56.9-153.4 97.3-35.8 19.5-81 9.3-104.4-24.9-32.7-48.3-58.4-123-116-134.7-72.4-14-132.4 24.9-173.7 77.9-14.8 18.7-35.8 58.4-65.4 52.2-28.8-5.5-54.5-51.4-74-70.9-45.9-45.2-103.6-50.6-158.1-14-51.5 35.9-95.1 149.6-57.7 132.5z" fill="" p-id="2647"></path><path d="M739.1 673.9c-84.1 0.8-112.9-150.3-183.8-165.9-57.6-12.5-93.5 21-144.1 71.6-41.3 41.4-101.2 42.9-135.5-13.1-30.4-50.6-60-166.7-148.7-119.9-30.4 16.4-59.2 42.8-74.8 73.2-28.8 54.5-20.3 115.2-9.4 105.1 14.8-13.2 18.7-44.4 40.5-84.9 17.1-31.9 53-57.6 71.6-49.1 21.8 10.9 30.4 55.3 35 70.1 11.7 38.9 29.6 69.3 58.4 98.1 59.2 59.2 141 52.2 185.4 7.8 2.3-2.3 5.5-5.5 7.8-8.6 35.8-42.1 102.8-34.3 129.3 14 0 0 0 0.8 0.8 0.8 39.7 70.9 116.8 116 204 96.6 82.6-18.7 127.7-70.1 172.9-135.5 27.3-39.7 42.8-84.9 42.8-120.7 0.9-35.8-108.9 159.7-252.2 160.4z" fill="" p-id="2648"></path></svg>
